<svg version="1.1" viewBox="0.0 0.0 225.70866141732284 226.33858267716536" fill="none" stroke="none" stroke-linecap="square" stroke-miterlimit="10" xmlns:xlink="http://www.w3.org/1999/xlink" xmlns="http://www.w3.org/2000/svg"><clipPath id="p.0"><path d="m0 0l225.70866 0l0 226.33858l-225.70866 0l0 -226.33858z" clip-rule="nonzero"/></clipPath><g clip-path="url(#p.0)"><path fill="#000000" fill-opacity="0.0" d="m0 0l225.70866 0l0 226.33858l-225.70866 0z" fill-rule="evenodd"/><defs><radialGradient id="p.1" gradientUnits="userSpaceOnUse" gradientTransform="matrix(17.798422223933706 0.0 0.0 17.798422223933706 0.0 0.0)" spreadMethod="pad" cx="0.0" cy="0.0" fx="0.0" fy="0.0" r="17.79842185974121"><stop offset="0.0" stop-color="#d9d9d9"/><stop offset="1.0" stop-color="#000000"/></radialGradient></defs><path fill="url(#p.1)" d="m0 37.33408l0 0c0 -20.619043 16.715036 -37.33408 37.33408 -37.33408l149.33185 0l0 0c9.901611 0 19.397675 3.9334006 26.39917 10.934899c7.0015106 7.001498 10.934906 16.497566 10.934906 26.399181l0 149.33185c0 20.619034 -16.715042 37.334076 -37.334076 37.334076l-149.33185 0c-20.619043 0 -37.33408 -16.715042 -37.33408 -37.334076z" fill-rule="evenodd"/><path stroke="#000000" stroke-width="1.0" stroke-linejoin="round" stroke-linecap="butt" d="m0 37.33408l0 0c0 -20.619043 16.715036 -37.33408 37.33408 -37.33408l149.33185 0l0 0c9.901611 0 19.397675 3.9334006 26.39917 10.934899c7.0015106 7.001498 10.934906 16.497566 10.934906 26.399181l0 149.33185c0 20.619034 -16.715042 37.334076 -37.334076 37.334076l-149.33185 0c-20.619043 0 -37.33408 -16.715042 -37.33408 -37.334076z" fill-rule="evenodd"/><defs><linearGradient id="p.2" gradientUnits="userSpaceOnUse" gradientTransform="matrix(13.26654939484349 0.0 0.0 13.26654939484349 0.0 0.0)" spreadMethod="pad" x1="15.075610611976078" y1="0.6030204058268144" x2="1.809061217480443" y2="0.6029243349219698"><stop offset="0.0" stop-color="#8c8c8c"/><stop offset="1.0" stop-color="#404040"/></linearGradient></defs><path fill="url(#p.2)" d="m24.0 37.33392l0 0c0 -16.200676 13.133244 -29.33392 29.33392 -29.33392l117.33215 0l0 0c7.779846 0 15.241043 3.0905294 20.742218 8.591705c5.501175 5.5011787 8.591705 12.962376 8.591705 20.742214l0 125.33215c0 16.200684 -13.13324 29.333923 -29.333923 29.333923l-117.33215 0l0 0c-16.200676 0 -29.33392 -13.13324 -29.33392 -29.333923z" fill-rule="evenodd"/><path stroke="#000000" stroke-width="1.0" stroke-linejoin="round" stroke-linecap="butt" d="m24.0 37.33392l0 0c0 -16.200676 13.133244 -29.33392 29.33392 -29.33392l117.33215 0l0 0c7.779846 0 15.241043 3.0905294 20.742218 8.591705c5.501175 5.5011787 8.591705 12.962376 8.591705 20.742214l0 125.33215c0 16.200684 -13.13324 29.333923 -29.333923 29.333923l-117.33215 0l0 0c-16.200676 0 -29.33392 -13.13324 -29.33392 -29.333923z" fill-rule="evenodd"/></g></svg>